#!OML:ASF F:\VICON\USERDATA\INSTALL\Justin_Nancy\Justin_Nancy.ASF
:FULLY-SPECIFIED
:DEGREES
343
root -0.653389 17.4042 13.7711 -1.89762 3.2491 -0.48751
lowerback 7.01745 -1.53992 -1.53432
upperback -0.547638 -2.05868 2.81038
thorax -4.34826 -0.952827 4.00337
lowerneck -15.9032 -5.00492 -10.3766
upperneck 22.9541 -6.04922 6.97083
head 10.528 -2.89045 3.38514
rclavicle 1.83224e-014 -3.65764e-014
rhumerus -38.6228 -24.7869 -69.8323
rradius 24.1413
rwrist 13.6541
rhand -14.9201 12.9984
rfingers 7.12502
rthumb 11.2418 -16.6804
lclavicle 1.83224e-014 -3.65764e-014
lhumerus -30.4467 1.07613 86.0865
lradius 41.1136
lwrist -4.73338
lhand -12.1638 26.1525
lfingers 7.12502
lthumb 13.8991 55.668
rfemur -18.4829 1.38096 23.6633
rtibia 24.1122
rfoot -0.703229 -3.2028
rtoes -0.987826
lfemur 0.642678 -0.791912 -18.6261
ltibia 51.9593
lfoot 27.1568 -6.82926
ltoes -5.50574
344
root -0.671509 17.4286 13.9605 -2.05903 3.12199 -0.917887
lowerback 6.9729 -1.48879 -1.09496
upperback -0.343853 -1.954 2.86353
thorax -4.13176 -0.916094 3.79235
lowerneck -16.1568 -5.02693 -10.2057
upperneck 22.7559 -6.09473 6.99176
head 10.5032 -2.88719 3.35092
rclavicle 9.24349e-015 -7.15625e-015
rhumerus -37.9977 -24.6668 -70.2515
rradius 24.0155
rwrist 13.4601
rhand -14.9661 13.5848
rfingers 7.12502
rthumb 11.1975 -16.0963
lclavicle 9.24349e-015 -7.15625e-015
lhumerus -30.4656 1.13202 86.0276
lradius 41.1583
lwrist -4.33355
lhand -12.3474 26.4121
lfingers 7.12502
lthumb 13.7222 55.9397
rfemur -17.1999 1.55797 24.2988
rtibia 23.395
rfoot -0.924742 -3.47966
rtoes -0.229426
lfemur -0.736127 -0.425394 -17.9818
ltibia 54.1897
lfoot 30.2273 -6.91651
ltoes -3.0765
345
root -0.688202 17.461 14.1515 -2.09919 3.01432 -1.12073
lowerback 6.93022 -1.42628 -0.921927
upperback -0.250912 -1.85676 2.89296
thorax -4.02256 -0.873766 3.71146
lowerneck -16.406 -5.04239 -10.157
upperneck 22.7557 -6.11563 7.03751
head 10.5526 -2.88185 3.35296
rclavicle 1.40392e-015 -1.51076e-014
rhumerus -37.5067 -24.5252 -70.5264
rradius 23.9126
rwrist 13.2744
rhand -15.3505 13.7798
rfingers 7.12502
rthumb 10.8267 -15.9211
lclavicle 1.40392e-015 -1.51076e-014
lhumerus -30.5783 1.37131 85.991
lradius 41.1074
lwrist -4.13502
lhand -12.3206 26.6337
lfingers 7.12502
lthumb 13.7481 56.1595
rfemur -16.0887 1.77771 24.6584
rtibia 22.7941
rfoot -1.20622 -3.70587
rtoes 0.295162
lfemur -2.36259 -0.0943859 -17.658
ltibia 56.3092
lfoot 31.7669 -7.58876
ltoes -0.357431
346
root -0.708004 17.4877 14.3323 -2.09742 2.8235 -1.56733
lowerback 7.04431 -1.32715 -0.55661
upperback -0.369235 -1.68404 3.04938
thorax -4.22791 -0.789937 3.6583
lowerneck -16.2089 -5.06649 -10.3622
upperneck 22.7615 -6.14373 7.15125
head 10.5312 -2.90365 3.42728
rclavicle -2.83889e-014 7.95139e-015
rhumerus -37.2968 -24.4366 -70.4544
rradius 23.6603
rwrist 13.2642
rhand -15.7374 14.5755
rfingers 7.12502
rthumb 10.4534 -15.1446
lclavicle -2.83889e-014 7.95139e-015
lhumerus -30.995 1.56372 86.084
lradius 40.8926
lwrist -3.86928
lhand -12.6088 26.5231
lfingers 7.12502
lthumb 13.4703 56.0675
rfemur -15.1831 2.09242 25.3165
rtibia 22.3532
rfoot -1.50755 -4.03153
rtoes 0.75826
lfemur -4.02719 0.254483 -17.0486
ltibia 58.3086
lfoot 30.6992 -8.75927
ltoes 0.681214
347
root -0.725713 17.5037 14.5117 -2.18223 2.65891 -1.83621
lowerback 7.13853 -1.17909 -0.335964
upperback -0.369921 -1.46342 3.11807
thorax -4.30013 -0.683486 3.58568
lowerneck -16.0705 -5.1584 -10.3945
upperneck 22.6144 -6.27552 7.16714
head 10.4665 -2.96689 3.41828
rclavicle -1.45982e-014 2.14687e-014
rhumerus -37.058 -24.3313 -70.5143
rradius 23.65
rwrist 13.1741
rhand -15.9356 15.4676
rfingers 7.12502
rthumb 10.2623 -14.2621
lclavicle -1.45982e-014 2.14687e-014
lhumerus -31.2158 1.54976 86.186
lradius 40.4679
lwrist -3.41061
lhand -13.3708 25.2632
lfingers 7.12502
lthumb 12.7357 54.8548
rfemur -14.3024 2.31529 25.765
rtibia 22.0252
rfoot -1.89199 -4.28278
rtoes 1.20141
lfemur -5.35908 0.599292 -16.6349
ltibia 60.0879
lfoot 28.2231 -9.70418
ltoes 0.104992
348
root -0.740148 17.5174 14.689 -2.22739 2.3865 -1.92863
lowerback 7.12537 -1.00969 -0.262349
upperback -0.313153 -1.2332 3.10516
thorax -4.25002 -0.572 3.50468
lowerneck -15.8369 -5.1885 -10.3965
upperneck 22.2605 -6.34741 7.26471
head 10.3042 -2.99186 3.44129
rclavicle 9.23728e-015 -1.27222e-014
rhumerus -36.8363 -24.0496 -70.8262
rradius 23.992
rwrist 12.8604
rhand -15.8944 15.6859
rfingers 7.12502
rthumb 10.302 -14.0418
lclavicle 9.23728e-015 -1.27222e-014
lhumerus -31.4167 1.6075 86.1925
lradius 40.0841
lwrist -2.82629
lhand -14.1279 23.7776
lfingers 7.12502
lthumb 12.0058 53.4132
rfemur -13.5871 2.58564 26.0082
rtibia 21.8481
rfoot -2.35798 -4.43371
rtoes 1.74013
lfemur -6.66563 0.966095 -16.4606
ltibia 61.6165
lfoot 25.6755 -10.1763
ltoes -0.247898
349
root -0.751382 17.5247 14.8633 -2.20199 2.01226 -2.07296
lowerback 7.06616 -0.831687 -0.0840789
upperback -0.312273 -0.981838 3.09893
thorax -4.23434 -0.451332 3.36945
lowerneck -15.6713 -5.23083 -10.4524
upperneck 22.0668 -6.42939 7.3847
head 10.2174 -3.02335 3.48145
rclavicle -5.05037e-015 9.54166e-015
rhumerus -36.5614 -23.7981 -71.1021
rradius 24.1031
rwrist 12.6396
rhand -16.0426 15.7334
rfingers 7.12502
rthumb 10.1591 -14.0013
lclavicle -5.05037e-015 9.54166e-015
lhumerus -31.7463 1.76615 86.1961
lradius 39.8762
lwrist -2.49338
lhand -14.3009 24.3273
lfingers 7.12502
lthumb 11.839 53.9726
rfemur -13.0459 2.9072 26.3184
rtibia 21.8489
rfoot -2.83206 -4.50004
rtoes 1.79247
lfemur -7.98023 1.36191 -16.2593
ltibia 62.9057
lfoot 22.5587 -10.7234
ltoes -2.14391
350
root -0.764101 17.5397 15.0468 -2.30203 1.7868 -2.08653
lowerback 6.97545 -0.658991 -0.031792
upperback -0.193592 -0.754156 3.0392
thorax -4.07444 -0.34245 3.2496
lowerneck -15.8108 -5.36581 -10.5044
upperneck 22.058 -6.62872 7.53325
head 10.2687 -3.09936 3.51224
rclavicle 1.45858e-014 -6.36111e-015
rhumerus -35.9985 -23.3713 -71.5734
rradius 24.1578
rwrist 12.202
rhand -16.312 15.7648
rfingers 7.12502
rthumb 9.89913 -13.9825
lclavicle 1.45858e-014 -6.36111e-015
lhumerus -31.8729 1.85116 86.2202
lradius 39.6345
lwrist -2.39821
lhand -14.4031 26.3864
lfingers 7.12502
lthumb 11.7404 56.0374
rfemur -12.3176 3.1621 26.4869
rtibia 21.8432
rfoot -3.24291 -4.66081
rtoes 1.74718
lfemur -9.02088 1.6104 -16.2156
ltibia 63.9843
lfoot 18.6879 -10.994
ltoes -5.59175
351
root -0.777786 17.5668 15.2287 -2.32845 1.63981 -2.13722
lowerback 6.88387 -0.537275 0.0887975
upperback -0.139206 -0.587472 2.97716
thorax -3.97747 -0.263952 3.097
lowerneck -15.7881 -5.36996 -10.5252
upperneck 22.055 -6.67121 7.6909
head 10.274 -3.10333 3.56692
rclavicle 7.87063e-015 2.70347e-014
rhumerus -35.6087 -22.7351 -72.0897
rradius 24.6367
rwrist 11.9612
rhand -16.1377 15.7767
rfingers 7.12502
rthumb 10.0674 -13.9625
lclavicle 7.87063e-015 2.70347e-014
lhumerus -31.9396 2.10289 86.085
lradius 39.1581
lwrist -2.66799
lhand -13.5811 28.3028
lfingers 7.12502
lthumb 12.533 57.907
rfemur -11.7138 3.52992 26.6731
rtibia 21.7115
rfoot -3.45903 -4.95612
rtoes 1.38348
lfemur -10.1809 1.84996 -16.1384
ltibia 64.8844
lfoot 15.329 -11.4256
ltoes -6.88427
352
root -0.786721 17.5566 15.3924 -2.25325 1.42588 -2.26736
lowerback 6.9354 -0.415929 0.247837
upperback -0.292156 -0.407303 2.9831
thorax -4.17604 -0.175149 2.99798
lowerneck -15.3308 -5.34738 -10.5341
upperneck 22.075 -6.67256 7.63582
head 10.1926 -3.12152 3.55562
rclavicle -4.16205e-016 3.49861e-014
rhumerus -35.4279 -22.6452 -72.1081
rradius 24.603
rwrist 12.3221
rhand -16.0285 16.535
rfingers 7.12502
rthumb 10.1727 -13.1991
lclavicle -4.16205e-016 3.49861e-014
lhumerus -32.3254 2.60195 85.9265
lradius 38.7817
lwrist -3.83007
lhand -11.4159 30.4495
lfingers 7.12502
lthumb 14.6199 59.9142
rfemur -10.9458 3.7775 26.9405
rtibia 21.5974
rfoot -3.94256 -5.22946
rtoes 1.20079
lfemur -11.708 2.11818 -16.0259
ltibia 65.8149
lfoot 12.6408 -12.1764
ltoes -6.08765
353
root -0.793842 17.5627 15.5685 -2.28272 1.20248 -2.43148
lowerback 6.89718 -0.306018 0.448693
upperback -0.274044 -0.244977 2.99496
thorax -4.1446 -0.0990566 2.87929
lowerneck -15.2593 -5.42779 -10.5062
upperneck 22.1518 -6.77429 7.51254
head 10.212 -3.18158 3.49375
rclavicle -2.46617e-015 3.97569e-015
rhumerus -34.8992 -22.6871 -72.1884
rradius 24.241
rwrist 12.671
rhand -15.9955 16.9503
rfingers 7.12502
rthumb 10.2045 -12.7822
lclavicle -2.46617e-015 3.97569e-015
lhumerus -32.569 2.78347 85.9469
lradius 38.1009
lwrist -3.34434
lhand -12.4051 29.3689
lfingers 7.12502
lthumb 13.6666 58.9002
rfemur -10.1506 3.85352 27.2538
rtibia 21.5692
rfoot -4.34917 -5.41917
rtoes 2.05383
lfemur -13.0073 2.35856 -15.9142
ltibia 66.5018
lfoot 10.3073 -12.6967
ltoes -6.66529
354
root -0.798134 17.5701 15.7438 -2.27006 1.04767 -2.32885
lowerback 6.7353 -0.216256 0.42261
upperback -0.143876 -0.137994 2.9129
thorax -3.92318 -0.0482691 2.79414
lowerneck -15.4673 -5.42541 -10.4167
upperneck 22.165 -6.76738 7.49208
head 10.2512 -3.1682 3.46934
rclavicle -1.44119e-015 -4.69132e-014
rhumerus -34.1433 -21.9536 -72.8298
rradius 24.4186
rwrist 12.2409
rhand -15.8464 16.3073
rfingers 7.12502
rthumb 10.3484 -13.4181
lclavicle -1.44119e-015 -4.69132e-014
lhumerus -32.4524 3.03869 85.8514
lradius 37.4483
lwrist -3.68406
lhand -12.0845 30.4507
lfingers 7.12502
lthumb 13.9756 59.9609
rfemur -9.5518 3.89145 27.2542
rtibia 21.6012
rfoot -5.22222 -5.39245
rtoes 0.884254
lfemur -14.2807 2.46991 -16.1589
ltibia 66.9882
lfoot 8.42319 -12.3835
ltoes -8.25217
355
root -0.799216 17.5702 15.9104 -2.20229 0.887835 -2.17743
lowerback 6.76006 -0.0856835 0.437239
upperback -0.222907 0.0349879 2.78907
thorax -4.02673 0.037083 2.6405
lowerneck -15.2483 -5.41596 -10.482
upperneck 22.0732 -6.78585 7.61669
head 10.1855 -3.17293 3.52474
rclavicle 2.77988e-015 -3.73715e-014
rhumerus -33.8538 -20.812 -73.502
rradius 25.1308
rwrist 11.3956
rhand -15.6711 14.9654
rfingers 7.12502
rthumb 10.5175 -14.7515
lclavicle 2.77988e-015 -3.73715e-014
lhumerus -32.616 3.22493 85.7843
lradius 36.5584
lwrist -4.13075
lhand -12.4306 29.8545
lfingers 7.12502
lthumb 13.642 59.3875
rfemur -9.08455 3.9884 27.1937
rtibia 21.6828
rfoot -5.72793 -5.53071
rtoes 0.309929
lfemur -15.554 2.52105 -16.474
ltibia 67.2702
lfoot 6.5727 -11.5253
ltoes -10.0349
356
root -0.79982 17.5747 16.081 -2.13021 0.760306 -2.02228
lowerback 6.85448 0.0490148 0.480052
upperback -0.400696 0.218233 2.63297
thorax -4.27149 0.127414 2.43703
lowerneck -15.2053 -5.46677 -10.4422
upperneck 22.3834 -6.87672 7.55846
head 10.2948 -3.21993 3.48912
rclavicle 8.97637e-016 2.10712e-014
rhumerus -33.8468 -20.0269 -73.8839
rradius 25.8095
rwrist 11.2108
rhand -15.352 13.819
rfingers 7.12502
rthumb 10.8252 -15.882
lclavicle 8.97637e-016 2.10712e-014
lhumerus -33.2465 3.24613 85.7044
lradius 35.9901
lwrist -4.57654
lhand -13.1747 28.595
lfingers 7.12502
lthumb 12.9248 58.1747
rfemur -8.51149 4.08238 27.1206
rtibia 21.787
rfoot -6.35507 -5.76291
rtoes 0.501869
lfemur -16.7737 2.54211 -16.8037
ltibia 67.3475
lfoot 5.02227 -10.7915
ltoes -11.3799
